<svg width="29" height="29" viewBox="0 0 29 29" fill="none" xmlns="http://www.w3.org/2000/svg">
<path fill-rule="evenodd" clip-rule="evenodd" d="M13.05 1.45C13.05 0.649187 13.6992 0 14.5 0C22.5081 0 29 6.49187 29 14.5C29 22.5081 22.5081 29 14.5 29C6.49187 29 0 22.5081 0 14.5C0 13.6992 0.649187 13.05 1.45 13.05C2.25081 13.05 2.9 13.6992 2.9 14.5C2.9 20.9065 8.0935 26.1 14.5 26.1C20.9065 26.1 26.1 20.9065 26.1 14.5C26.1 8.0935 20.9065 2.9 14.5 2.9C13.6992 2.9 13.05 2.25081 13.05 1.45Z" fill="white"/>
<path fill-rule="evenodd" clip-rule="evenodd" d="M13 8.5C13 7.67157 13.6716 7 14.5 7C18.6421 7 22 10.3579 22 14.5C22 18.6421 18.6421 22 14.5 22C13.6716 22 13 21.3284 13 20.5C13 19.6716 13.6716 19 14.5 19C16.9853 19 19 16.9853 19 14.5C19 12.0147 16.9853 10 14.5 10C13.6716 10 13 9.32843 13 8.5Z" fill="white"/>
</svg>
